HIERARCHY
ROOT Pelvis
{
	OFFSET 0.000000 0.000000 0.000000
	CHANNELS 6 Xposition Yposition Zposition Zrotation Yrotation Xrotation 
	JOINT Left_hip
	{
		OFFSET 0.070241 -0.085575 -0.010474
		CHANNELS 3 Zrotation Yrotation Xrotation
		JOINT Left_knee
		{
			OFFSET 0.032125 -0.356873 -0.000555
			CHANNELS 3 Zrotation Yrotation Xrotation
			JOINT Left_ankle
			{
				OFFSET -0.010961 -0.370212 -0.042278
				CHANNELS 3 Zrotation Yrotation Xrotation
				JOINT Left_foot
				{
					OFFSET 0.023322 -0.052281 0.110104
					CHANNELS 3 Zrotation Yrotation Xrotation
					End Site
					{
						OFFSET 0.000000 0.000000 0.000000
					}
				}
			}
		}
	}
	JOINT Right_hip
	{
		OFFSET -0.068518 -0.084320 -0.007402
		CHANNELS 3 Zrotation Yrotation Xrotation
		JOINT Right_knee
		{
			OFFSET -0.037345 -0.364815 -0.003619
			CHANNELS 3 Zrotation Yrotation Xrotation
			JOINT Right_ankle
			{
				OFFSET 0.013394 -0.370006 -0.039954
				CHANNELS 3 Zrotation Yrotation Xrotation
				JOINT Right_foot
				{
					OFFSET -0.019600 -0.045455 0.113223
					CHANNELS 3 Zrotation Yrotation Xrotation
					End Site
					{
						OFFSET 0.000000 0.000000 0.000000
					}
				}
			}
		}
	}
	JOINT Spine1
	{
		OFFSET -0.002404 0.098129 -0.018169
		CHANNELS 3 Zrotation Yrotation Xrotation
		JOINT Spine2
		{
			OFFSET 0.003989 0.127209 -0.001742
			CHANNELS 3 Zrotation Yrotation Xrotation
			JOINT Spine3
			{
				OFFSET 0.001758 0.046641 0.023475
				CHANNELS 3 Zrotation Yrotation Xrotation
				JOINT Neck
				{
					OFFSET -0.003759 0.194901 -0.039982
					CHANNELS 3 Zrotation Yrotation Xrotation
					JOINT Head
					{
						OFFSET 0.003999 0.063756 0.047665
						CHANNELS 3 Zrotation Yrotation Xrotation
						End Site
						{
							OFFSET 0.000000 0.000000 0.000000
						}
					}
				}
				JOINT Left_collar
				{
					OFFSET 0.071816 0.109048 -0.028973
					CHANNELS 3 Zrotation Yrotation Xrotation
					JOINT Left_shoulder
					{
						OFFSET 0.084027 0.032269 -0.006525
						CHANNELS 3 Zrotation Yrotation Xrotation
						JOINT Left_elbow
						{
							OFFSET 0.243854 -0.013992 -0.025905
							CHANNELS 3 Zrotation Yrotation Xrotation
							JOINT Left_wrist
							{
								OFFSET 0.232156 0.008196 -0.000339
								CHANNELS 3 Zrotation Yrotation Xrotation
								JOINT Left_palm
								{
									OFFSET 0.075377 -0.009461 -0.012494
									CHANNELS 3 Zrotation Yrotation Xrotation
									End Site
									{
										OFFSET 0.000000 0.000000 0.000000
									}
								}
							}
						}
					}
				}
				JOINT Right_collar
				{
					OFFSET -0.073768 0.107001 -0.033755
					CHANNELS 3 Zrotation Yrotation Xrotation
					JOINT Right_shoulder
					{
						OFFSET -0.086837 0.032868 -0.009431
						CHANNELS 3 Zrotation Yrotation Xrotation
						JOINT Right_elbow
						{
							OFFSET -0.236446 -0.012544 -0.018747
							CHANNELS 3 Zrotation Yrotation Xrotation
							JOINT Right_wrist
							{
								OFFSET -0.236110 0.006124 -0.004327
								CHANNELS 3 Zrotation Yrotation Xrotation
								JOINT Right_palm
								{
									OFFSET -0.074800 -0.006875 -0.009610
									CHANNELS 3 Zrotation Yrotation Xrotation
									End Site
									{
										OFFSET 0.000000 0.000000 0.000000
									}
								}
							}
						}
					}
				}
			}
		}
	}
}
MOTION
Frames: 5
Frame Time: 0.100000
0.278093 -0.095579 0.592356 175.528497 34.563347 -3.563124 7.355662 2.571932 -20.382452 0.022113 -7.537330 7.336289 -2.733827 10.898832 7.672629 6.499710 8.346553 -15.757469 1.611059 0.905146 -19.914575 1.727426 4.126473 16.496766 11.832651 -11.217172 -6.701218 -20.208967 2.402551 -6.652944 1.608937 1.522954 24.718987 1.836195 -3.869918 -6.290947 4.737961 0.714736 4.611860 -9.673597 15.737245 -12.526171 4.689974 5.942955 -17.392848 5.749433 -19.048187 -9.144614 -21.635110 -16.055492 -5.777824 29.914121 -44.526186 -18.963525 12.770058 2.720333 3.629557 -18.024976 -10.334325 -10.219287 7.632595 28.940238 -0.029089 58.800790 16.670665 23.149860 94.640508 74.480660 119.448067 -12.642787 3.656297 -10.979776 16.384466 6.567836 -3.177927 
0.286032 -0.105466 0.605371 174.111236 38.474290 -0.949734 6.341259 4.067851 -21.403693 1.427189 -7.580593 0.113205 -3.566658 13.057540 12.365558 6.459064 6.538409 -14.946087 2.836271 -0.268120 -20.403231 1.556796 3.025754 11.097300 13.992784 -14.586429 -4.800495 -20.687878 2.847275 -7.832063 0.186688 0.565283 23.471467 5.706585 -7.191395 -10.429484 7.618595 -2.618991 6.044194 -18.690781 29.326419 -19.119072 2.196594 11.706780 -17.033970 17.912146 -27.108298 -11.523899 0.218963 -14.359553 -18.552686 9.771824 -18.492722 -6.136137 8.844882 -1.696654 9.297475 -12.964291 -7.129409 -9.632128 6.379776 32.704728 -1.496405 56.424080 12.842818 20.937214 92.812298 72.486463 116.697848 -12.928622 6.747358 -12.256338 14.912693 2.584933 -2.319599 
0.284111 -0.112514 0.617805 173.890511 40.569082 1.090252 3.842499 5.109783 -21.617800 2.150548 -5.714355 -4.315224 -3.402426 15.635893 15.020588 6.581517 5.168916 -14.872849 3.422479 -0.654683 -19.681250 0.655165 2.734315 6.763331 16.354629 -16.525153 -4.072572 -22.280143 3.960397 -8.209687 0.416536 0.322365 21.838147 6.907885 -9.007819 -12.154331 8.782305 -3.623959 6.161143 -31.787450 42.639865 -26.880845 -2.158754 22.275232 -14.139015 25.079872 -33.501239 -15.176010 11.795700 -13.782996 -27.209481 3.596793 -0.652146 -3.184893 3.413998 -2.832911 15.438170 -10.846087 -6.696274 -10.832776 6.595808 35.469353 -0.205070 56.218447 9.931104 18.874147 91.505911 74.380826 115.015098 -10.943164 8.459439 -12.417749 16.162547 1.829681 -3.416056 
0.280653 -0.116879 0.629501 174.499081 43.356951 1.502453 2.664265 4.247815 -22.689854 1.854058 -4.852214 -2.687505 -3.819735 15.317576 15.277536 6.176149 5.436045 -15.309286 3.072666 -1.496962 -17.316366 0.032601 1.980881 3.678824 16.477432 -16.967158 -4.058988 -21.542663 5.535857 -6.563728 0.833514 2.632501 19.513698 5.655939 -8.280242 -10.440186 8.038681 -1.568740 4.847002 -35.359220 47.604692 -26.444880 -1.492860 25.587462 -8.824264 26.565844 -36.373306 -18.522813 17.452483 -24.663337 -32.445393 2.138220 1.447716 -6.103928 3.154837 -3.326002 15.909550 -12.369011 -8.583282 -13.277533 7.315346 33.745807 1.797590 56.925592 4.974043 16.449843 94.349775 79.874062 115.308702 -11.322104 7.428414 -14.045403 19.441818 5.559774 -5.571984 
0.278150 -0.122857 0.639191 174.617285 47.027487 2.556592 2.247313 3.269346 -25.266070 1.158031 -5.451769 -0.350223 -4.960046 14.899829 16.324119 6.759377 4.850484 -16.011750 2.946270 -2.574628 -15.456046 -0.570716 1.350579 -0.203303 17.406847 -18.257120 -3.312799 -23.256946 6.122559 -6.679155 0.888013 3.139385 18.702096 5.225075 -8.751345 -10.948472 7.775759 -1.496675 4.389348 -36.838534 46.678143 -27.612891 -0.776977 26.688566 -8.244741 26.531473 -36.608781 -18.144456 17.273496 -28.447180 -31.899905 3.253246 -1.470215 1.835608 5.103044 -4.151987 19.881163 -12.762093 -9.665818 -14.336012 5.956276 31.318813 1.708354 57.179099 2.974946 14.655444 89.180174 81.155334 110.839838 -10.778457 7.421125 -14.410182 20.541543 7.676510 -6.305108 
